<?xml version="1.0" ?><svg viewBox="0 0 32 32" xmlns="http://www.w3.org/2000/svg"><defs><style>.cls-1{fill:none;stroke:#000;stroke-linejoin:round;stroke-width:2px;}</style></defs><title/><g data-name="37-Calendar" id="_37-Calendar"><polyline class="cls-1" points="27 4 31 4 31 31 1 31 1 4 5 4"/><rect class="cls-1" height="4" rx="2" ry="2" transform="translate(29 -21) rotate(90)" width="6" x="22" y="2"/><rect class="cls-1" height="4" rx="2" ry="2" transform="translate(20 -12) rotate(90)" width="6" x="13" y="2"/><rect class="cls-1" height="4" rx="2" ry="2" transform="translate(11 -3) rotate(90)" width="6" x="4" y="2"/><line class="cls-1" x1="31" x2="1" y1="11" y2="11"/><line class="cls-1" x1="23" x2="18" y1="4" y2="4"/><line class="cls-1" x1="14" x2="9" y1="4" y2="4"/><rect class="cls-1" height="4" width="4" x="5" y="15"/><rect class="cls-1" height="4" width="4" x="14" y="15"/><rect class="cls-1" height="4" width="4" x="23" y="15"/><rect class="cls-1" height="4" width="4" x="23" y="23"/><rect class="cls-1" height="4" width="4" x="14" y="23"/><rect class="cls-1" height="4" width="4" x="5" y="23"/></g></svg>